<svg width="40" height="28" viewBox="0 0 40 28" fill="none" xmlns="http://www.w3.org/2000/svg">
<mask id="path-1-inside-1" fill="white">
<path d="M34.5805 17.9428C34.3876 16.7755 33.3527 15.8655 32.0205 15.5943C26.8422 14.5373 25.5441 11.9403 25.325 9.05975C24.4067 8.911 22.773 8.75 20 8.75C17.227 8.75 15.5933 8.911 14.675 9.05975C14.456 11.9403 13.1579 14.5373 7.97955 15.5943C6.64729 15.8673 5.61243 16.7755 5.41952 17.9428L4.42083 23.9662C4.06918 26.0872 5.85758 28 8.34527 28H31.6548C34.1404 28 35.9309 26.0872 35.5792 23.9662L34.5805 17.9428ZM20 23.611C17.1968 23.611 14.9242 21.651 14.9242 19.236C14.9242 16.821 17.1968 14.861 20 14.861C22.8032 14.861 25.0759 16.821 25.0759 19.236C25.0759 21.651 22.8012 23.611 20 23.611ZM39.9939 7C39.9457 4.375 32.2737 0.00175 20 0C7.72435 0.00175 0.0523089 4.375 0.00609179 7C-0.0401253 9.625 0.04829 13.041 5.10002 12.4722C11.0098 11.8055 10.6461 10.0083 10.6461 7.43925C10.6461 5.64725 15.4527 5.215 20 5.215C24.5474 5.215 29.3519 5.64725 29.354 7.43925C29.354 10.0083 28.9902 11.8055 34.9 12.4722C39.9497 13.041 40.0402 9.625 39.9939 7Z"/>
</mask>
<path d="M34.5805 17.9428C34.3876 16.7755 33.3527 15.8655 32.0205 15.5943C26.8422 14.5373 25.5441 11.9403 25.325 9.05975C24.4067 8.911 22.773 8.75 20 8.75C17.227 8.75 15.5933 8.911 14.675 9.05975C14.456 11.9403 13.1579 14.5373 7.97955 15.5943C6.64729 15.8673 5.61243 16.7755 5.41952 17.9428L4.42083 23.9662C4.06918 26.0872 5.85758 28 8.34527 28H31.6548C34.1404 28 35.9309 26.0872 35.5792 23.9662L34.5805 17.9428ZM20 23.611C17.1968 23.611 14.9242 21.651 14.9242 19.236C14.9242 16.821 17.1968 14.861 20 14.861C22.8032 14.861 25.0759 16.821 25.0759 19.236C25.0759 21.651 22.8012 23.611 20 23.611ZM39.9939 7C39.9457 4.375 32.2737 0.00175 20 0C7.72435 0.00175 0.0523089 4.375 0.00609179 7C-0.0401253 9.625 0.04829 13.041 5.10002 12.4722C11.0098 11.8055 10.6461 10.0083 10.6461 7.43925C10.6461 5.64725 15.4527 5.215 20 5.215C24.5474 5.215 29.3519 5.64725 29.354 7.43925C29.354 10.0083 28.9902 11.8055 34.9 12.4722C39.9497 13.041 40.0402 9.625 39.9939 7Z" fill="black"/>
<path d="M34.5805 17.9428L4.98199 22.8344L4.98326 22.8421L4.98454 22.8497L34.5805 17.9428ZM32.0205 15.5943L26.0206 44.9882L26.0279 44.9896L26.0352 44.9911L32.0205 15.5943ZM25.325 9.05975L55.2387 6.78516L53.4471 -16.776L30.122 -20.5543L25.325 9.05975ZM14.675 9.05975L9.87807 -20.5543L-13.4471 -16.776L-15.2386 6.78516L14.675 9.05975ZM7.97955 15.5943L1.97966 -13.7996L1.96845 -13.7974L1.95723 -13.7951L7.97955 15.5943ZM5.41952 17.9428L35.0155 22.8497L35.0168 22.8421L35.018 22.8344L5.41952 17.9428ZM4.42083 23.9662L-25.1751 19.0593L-25.1752 19.0594L4.42083 23.9662ZM35.5792 23.9662L65.1752 19.0594L65.1752 19.0593L35.5792 23.9662ZM39.9939 7L69.9893 6.47189L69.9891 6.46041L69.9889 6.44893L39.9939 7ZM20 0L20.0043 -30H19.9957L20 0ZM5.10002 12.4722L8.45637 42.2839L8.46334 42.2831L5.10002 12.4722ZM29.354 7.43925H59.354V7.42243L59.3539 7.40561L29.354 7.43925ZM34.9 12.4722L31.5367 42.2831L31.5423 42.2838L34.9 12.4722ZM64.179 13.0511C61.4491 -3.46753 48.1573 -11.7358 38.0057 -13.8026L26.0352 44.9911C18.5482 43.4668 7.32615 37.0185 4.98199 22.8344L64.179 13.0511ZM38.0204 -13.7996C39.4901 -13.4996 44.7025 -12.0995 49.386 -6.74921C54.1738 -1.2799 55.065 4.50141 55.2387 6.78516L-4.58862 11.3343C-4.19594 16.4986 -2.54613 25.0187 4.23999 32.7708C10.9219 40.404 19.3725 43.6311 26.0206 44.9882L38.0204 -13.7996ZM30.122 -20.5543C27.1526 -21.0352 23.8277 -21.25 20 -21.25V38.75C20.8164 38.75 21.2349 38.774 21.3332 38.7807C21.4378 38.7878 21.136 38.7722 20.5281 38.6738L30.122 -20.5543ZM20 -21.25C16.1723 -21.25 12.8474 -21.0352 9.87807 -20.5543L19.4719 38.6738C18.864 38.7722 18.5622 38.7878 18.6668 38.7807C18.7651 38.774 19.1836 38.75 20 38.75V-21.25ZM-15.2386 6.78516C-15.065 4.50142 -14.1738 -1.27989 -9.38602 -6.7492C-4.70249 -12.0995 0.50992 -13.4996 1.97966 -13.7996L13.9794 44.9882C20.6275 43.6311 29.0781 40.404 35.76 32.7708C42.5462 25.0186 44.196 16.4986 44.5886 11.3343L-15.2386 6.78516ZM1.95723 -13.7951C-8.13295 -11.7274 -21.4452 -3.49097 -24.179 13.0511L35.018 22.8344C32.67 37.042 21.4275 43.4619 14.0019 44.9836L1.95723 -13.7951ZM-24.1764 13.0358L-25.1751 19.0593L34.0168 28.8732L35.0155 22.8497L-24.1764 13.0358ZM-25.1752 19.0594C-29.1687 43.1466 -8.72986 58 8.34527 58V-2C20.445 -2 37.3071 9.02791 34.0168 28.8731L-25.1752 19.0594ZM8.34527 58H31.6548V-2H8.34527V58ZM31.6548 58C48.7165 58 69.1704 43.1567 65.1752 19.0594L5.98321 28.8731C2.69129 9.01777 19.5644 -2 31.6548 -2V58ZM65.1752 19.0593L64.1765 13.0358L4.98454 22.8497L5.98323 28.8732L65.1752 19.0593ZM20 -6.389C29.4323 -6.389 44.9242 1.05848 44.9242 19.236H-15.0758C-15.0758 42.2435 4.96136 53.611 20 53.611V-6.389ZM44.9242 19.236C44.9242 37.4135 29.4323 44.861 20 44.861V-15.139C4.96134 -15.139 -15.0758 -3.77151 -15.0758 19.236H44.9242ZM20 44.861C10.5677 44.861 -4.92414 37.4135 -4.92414 19.236H55.0759C55.0759 -3.77151 35.0387 -15.139 20 -15.139V44.861ZM-4.92414 19.236C-4.92414 1.05142 10.5739 -6.389 20 -6.389V53.611C35.0285 53.611 55.0759 42.2506 55.0759 19.236H-4.92414ZM69.9889 6.44893C69.7299 -7.64928 60.57 -15.8816 57.9908 -18.0711C53.978 -21.4777 49.6377 -23.7303 45.988 -25.2306C38.4505 -28.3293 29.5201 -29.9986 20.0043 -30L19.9957 30C22.7536 30.0004 23.7961 30.5185 23.175 30.2632C22.9836 30.1845 21.3374 29.5175 19.1602 27.6693C18.062 26.737 16.1826 24.9584 14.3889 22.1681C12.648 19.46 10.1253 14.4255 9.999 7.55107L69.9889 6.44893ZM19.9957 -30C10.4797 -29.9986 1.54869 -28.3295 -5.98952 -25.2306C-9.63927 -23.7302 -13.9811 -21.477 -17.995 -18.0685C-20.5747 -15.8779 -29.7408 -7.63728 -29.9893 6.47189L30.0014 7.52811C29.8803 14.4072 27.3583 19.447 25.6163 22.159C23.8219 24.9527 21.9408 26.7334 20.8417 27.6667C18.6629 29.5168 17.015 30.1845 16.8235 30.2632C16.2018 30.5188 17.2446 30.0004 20.0043 30L19.9957 -30ZM-29.9893 6.47189C-30.0015 7.16818 -30.0628 9.67835 -29.719 12.5763C-29.3788 15.444 -28.4542 20.5922 -25.2752 26.0445C-21.7222 32.1383 -16.1042 37.2885 -8.77711 40.1591C-2.10235 42.7741 4.11992 42.7721 8.45637 42.2839L1.74367 -17.3394C3.55426 -17.5433 7.87107 -17.7589 13.1099 -15.7065C19.001 -13.3984 23.6526 -9.15966 26.5578 -4.17698C29.089 0.164299 29.6845 4.00187 29.8633 5.50855C30.0456 7.04553 29.9906 8.14432 30.0014 7.52811L-29.9893 6.47189ZM8.46334 42.2831C11.1707 41.9777 15.0159 41.3652 19.1024 39.8146C23.4202 38.1763 29.2904 34.9946 33.9886 28.8024C38.7481 22.5296 40.0377 16.1414 40.4377 12.4317C40.7253 9.76449 40.6461 6.35179 40.6461 7.43925H-19.3539C-19.3539 9.81121 -19.3877 7.58654 -19.2166 5.9997C-18.9331 3.37034 -17.9219 -2.04516 -13.8102 -7.46422C-9.7598 -12.8026 -4.9067 -15.2494 -2.18288 -16.283C-0.833649 -16.7949 0.225092 -17.0529 0.804456 -17.1759C1.11235 -17.2413 1.34738 -17.2816 1.49513 -17.3048C1.64374 -17.328 1.72782 -17.3376 1.7367 -17.3386L8.46334 42.2831ZM40.6461 7.43925C40.6461 22.9482 29.583 30.5725 26.1411 32.5026C22.4239 34.5869 19.3944 35.0948 19.1493 35.1408C18.1036 35.3369 18.1857 35.215 20 35.215V-24.785C17.267 -24.785 12.6721 -24.6908 8.08631 -23.8305C6.07111 -23.4525 1.5557 -22.5006 -3.20478 -19.8312C-7.69007 -17.3161 -19.3539 -8.96575 -19.3539 7.43925H40.6461ZM20 35.215C21.8143 35.215 21.8955 35.3369 20.8493 35.1406C20.603 35.0944 17.5753 34.5866 13.8601 32.5037C10.4206 30.5754 -0.628656 22.9638 -0.646027 7.47289L59.3539 7.40561C59.3356 -8.98129 47.6849 -17.3189 43.202 -19.8323C38.4432 -22.5002 33.9298 -23.4521 31.9137 -23.8304C27.3278 -24.6908 22.7331 -24.785 20 -24.785V35.215ZM-0.646046 7.43925C-0.646046 6.3518 -0.72524 9.76449 -0.437659 12.4317C-0.0376705 16.1414 1.25198 22.5296 6.0114 28.8024C10.7096 34.9946 16.5799 38.1763 20.8976 39.8146C24.9842 41.3652 28.8293 41.9777 31.5367 42.2831L38.2633 -17.3386C38.2722 -17.3376 38.3563 -17.328 38.5049 -17.3048C38.6527 -17.2816 38.8877 -17.2413 39.1956 -17.1759C39.7749 -17.0529 40.8337 -16.7949 42.1829 -16.283C44.9067 -15.2494 49.7598 -12.8026 53.8102 -7.46423C57.9219 -2.04518 58.9331 3.37031 59.2166 5.99969C59.3877 7.58654 59.354 9.8112 59.354 7.43925H-0.646046ZM31.5423 42.2838C35.8804 42.7724 42.1029 42.7739 48.7775 40.1586C56.1032 37.2881 61.7195 32.1393 65.2719 26.0489C68.4509 20.5988 69.377 15.4521 69.718 12.5831C70.0626 9.68337 70.0016 7.17277 69.9893 6.47189L9.99859 7.52811C10.0094 8.13973 9.95442 7.0405 10.1373 5.50177C10.3165 3.99376 10.9131 0.157752 13.444 -4.18135C16.3484 -9.16072 20.9981 -13.3981 26.888 -15.706C32.1269 -17.7588 36.4445 -17.5435 38.2577 -17.3393L31.5423 42.2838Z" fill="black" mask="url(#path-1-inside-1)"/>
</svg>
